<?xml version="1.0" encoding="utf-8"?><!-- Uploaded to: SVG Repo, www.svgrepo.com, Generator: SVG Repo Mixer Tools -->
<svg version="1.1" id="Uploaded to svgrepo.com" xmlns="http://www.w3.org/2000/svg" xmlns:xlink="http://www.w3.org/1999/xlink" 
	 width="800px" height="800px" viewBox="0 0 32 32" xml:space="preserve">
<style type="text/css">
	.stone_een{fill:#0B1719;}
	.st0{fill:#0B1719;}
</style>
<path class="stone_een" d="M8,12H6V8h2V12z M26,8h-2v4h2V8z M30,11v14c0,1.657-1.343,3-3,3H5c-1.657,0-3-1.343-3-3V11
	c0-1.657,1.343-3,3-3v4c0,0.552,0.448,1,1,1h2c0.552,0,1-0.448,1-1V8h2V6c0-1.654,1.346-3,3-3h4c1.654,0,3,1.346,3,3v2h2v4
	c0,0.552,0.448,1,1,1h2c0.552,0,1-0.448,1-1V8C28.657,8,30,9.343,30,11z M19,6c0-0.551-0.448-1-1-1h-4c-0.552,0-1,0.449-1,1v2h6V6z"
	/>
</svg>